<svg id="Layer_1" data-name="Layer 1" xmlns="http://www.w3.org/2000/svg" viewBox="0 0 93.09 24.58"><defs><style>.cls-1{fill:#00adee}.cls-1,.cls-2,.cls-3{fill-rule:evenodd}.cls-2{fill:url(#GradientFill_1)}.cls-3,.cls-4{fill:#a5cd39}</style><linearGradient id="GradientFill_1" x1="452.5" y1="540.32" x2="549.6" y2="452.89" gradientUnits="userSpaceOnUse"><stop offset="0" stop-color="#0058a8"/><stop offset="1" stop-color="#00adee"/></linearGradient></defs><title>qingfeng</title><path class="cls-1" d="M558.89 455.51v1.38h4.87q.66 0 .66.45v.15h-5.32v1.21h4.79c.38 0 .58.14.58.42v.16h-5.77v1.31h5.77v.19a.45.45 0 0 1-.09.27.43.43 0 0 1-.32.12h-1.7v1h3.35a1.1 1.1 0 0 0 .84-.38 1.13 1.13 0 0 0 .29-.74v-.45h5.45v-1.31h-5.45v-.58H572v-1.21h-5.1v-.59h4q1.15 0 1.15-1.37zm2.51-1.8c.25 0 .37.11.37.32v.1h-1v-.42zm10-4.57h-2.5l.26-.61h-2.07L566 451.3h1.15a1.15 1.15 0 0 0 .92-.17l.2-.43h1.27l-.55.85h-2l.92 1.27-1.76 2.33h1.66a1.18 1.18 0 0 0 1-.29l.45-.65.82 1h2.22l-1.93-2.32 1.47-2.19a1.07 1.07 0 0 0-.43-1.56zm-5.24.72l-.09.36h-1.21v.3h-2.22v-.3H562v.3h-2.22v-.3h-1v-1.31h1v-.38H562v.38h.69v-.38h2.22v.38h1.3v.95zm-3.16 2.46c.33 0 .49.18.49.53v2.23h2.19v-2.62c0-.9-.51-1.36-1.47-1.36h-2.91l.06-.3h-1.62a1.73 1.73 0 0 1-1 .91v1.4l1-.26c-.26 0-.39.26-.39.74v1.46h3.8v-1.54c0-.51-.23-.77-.69-.77h-2.34l.55-.43zm24.58 7.57v-9.22q0-2.14-2-2.14H577a1.84 1.84 0 0 0-2 2.11v11.47h1q1.34.06 1.36-1.18v-10.49h7a.8.8 0 0 1 .89.92v9.4a1.23 1.23 0 0 0 1.4 1.38h1.87v-1.9h-.55c-.24 0-.36-.12-.36-.34zM582.7 456l2.42 4.5h-2.46l-1.28-2.28-1 1.7a.8.8 0 0 1-.84.49h-2.12l2.59-4.35-2.43-4.76H580l1.38 2.48 1.27-2.48h2.42l-2.37 4.7zm21.74 4.77V450.7q0-2-1.87-2h-9.21a1.8 1.8 0 0 0-2 2v11.44h2.32v-1.86h1.72l.55-1.46.2.46a1.48 1.48 0 0 0 1.57 1.05h.66a1.56 1.56 0 0 0 1.62-.85v-.17l.42 1h1.72v1.86h.86a1.25 1.25 0 0 0 1.41-1.37zm-5.4-4.48l-.58 1.86a.53.53 0 0 1-.36.3.42.42 0 0 1-.33-.25l-.94-2.35 1-3.47 1.25 3.91zm-4.05-.2l-1.36 3.31v-7.22l1.36 3.91zm0-5h-1.36v-.56h7.48q1 0 1 .56h-1.46l-.78 2.44-.78-2.44h-2.68l-.62 2.12-.81-2.12zm7.09 8.4l-1.28-3.08 1.3-4.41v7.54zm18.54-1.57q0-1.76-1.63-1.76h-4q-1.89 0-1.87 1.63v4.32h7.58v-4.19zm-3.23.14q.86 0 .86.94v1.36h-2.79v-2.29zm-5.84 4q1.11 0 1.11-1v-1h-5v2zm-1.36-4.67l2.26-3.63v-1.67h-2.19l2.08-3.5h-2.62l-2.08 3.23q-.79 1.89 1.09 2.17h1.1l-2.26 3.4q-.42 1.81 1.31 1.9h3.53v-1.9zm6.62-8.84h-2.24a3.48 3.48 0 0 1-1.38 1v2a6.12 6.12 0 0 0 2-.78h3.26l-.79 1.38-.66-.53a3 3 0 0 0-3.4.43 2.3 2.3 0 0 0-.22 2.74 2.77 2.77 0 0 0 1.44.87 4.94 4.94 0 0 0 2.11-.1l.85-.48.55.62H621l-1.74-2 1.55-2.7a1.46 1.46 0 0 0-1.17-2h-3.08l.25-.48zm-2 5a.46.46 0 0 1 .23-.37 1 1 0 0 1 .56-.16 1.85 1.85 0 0 1 1 .5 2.26 2.26 0 0 1-1 .55 1 1 0 0 1-.56-.16.45.45 0 0 1-.27-.33zm-52.52 14.17h-.92l-.13-.16a3.61 3.61 0 0 1-.48.15 2.28 2.28 0 0 1-1.76-.35 1.54 1.54 0 0 1-.49-1.23 1.65 1.65 0 0 1 .44-1.25 1.89 1.89 0 0 1 1.35-.42 1.83 1.83 0 0 1 1.34.46 1.37 1.37 0 0 1 .4 1 3.7 3.7 0 0 1 0 .66 1.55 1.55 0 0 1-.27.61l.56.52zm-1-1.61a1.24 1.24 0 0 0-.19-.71.85.85 0 0 0-.76-.35.92.92 0 0 0-.72.27 1.13 1.13 0 0 0-.24.78 1.1 1.1 0 0 0 .28.83 1 1 0 0 0 .75.24.8.8 0 0 0 .66-.27 1.22 1.22 0 0 0 .22-.79zm2.42 1.6h-.87v-3.19h.87v3.19zm4.22 0h-1l-1.57-2.36v2.36h-.78v-3.19h1l1.55 2.39v-2.39h.79v3.19zm4.26 0H570a1.19 1.19 0 0 1-1-.49 1.74 1.74 0 0 1-.36-1.1A1.64 1.64 0 0 1 569 465a1.34 1.34 0 0 1 1.05-.48h2v.59h-1.83a.68.68 0 0 0-.58.31 1.16 1.16 0 0 0-.2.69 1.34 1.34 0 0 0 .19.72.65.65 0 0 0 .58.34h1.1v-.81h-1.12v-.53h1.91v1.88zm3.94-1.33h-2.25v1.33H573v-2a1.34 1.34 0 0 1 .07-.4 1 1 0 0 1 .5-.59 3.16 3.16 0 0 1 1.42-.24h1.06v.52H575a2.89 2.89 0 0 0-.62 0 .65.65 0 0 0-.44.33.89.89 0 0 0-.1.42h2.27v.53zm3.72 1.33h-1.59a1.61 1.61 0 0 1-.71-.16 1.2 1.2 0 0 1-.56-.57 1.88 1.88 0 0 1-.19-.85 1.84 1.84 0 0 1 .19-.83 1.3 1.3 0 0 1 .57-.59 1.68 1.68 0 0 1 .38-.14 1.94 1.94 0 0 1 .42 0h1.47v.57h-1.36a.85.85 0 0 0-.31 0 .71.71 0 0 0-.24.17.75.75 0 0 0-.17.24.78.78 0 0 0 0 .29h2.14v.57h-2.14a.81.81 0 0 0 0 .27.77.77 0 0 0 .15.24.85.85 0 0 0 .23.19.59.59 0 0 0 .28.06h1.44v.55zm4.15 0h-1l-1.58-2.36v2.36h-.78v-3.19h1l1.55 2.39v-2.39h.81v3.19zm4.26 0H586a1.2 1.2 0 0 1-1-.49 1.74 1.74 0 0 1-.36-1.1 1.64 1.64 0 0 1 .4-1.11 1.33 1.33 0 0 1 1.05-.48h2v.59h-1.83a.68.68 0 0 0-.58.31 1.16 1.16 0 0 0-.2.69 1.34 1.34 0 0 0 .19.72.65.65 0 0 0 .58.34h1.09v-.81h-1.04v-.53h1.91v1.88zm7.58 0h-1l-1.58-2.36v2.36h-.78v-3.19h1l1.55 2.39v-2.39h.79v3.19zm3.8 0H598a1.62 1.62 0 0 1-.71-.16 1.2 1.2 0 0 1-.56-.57 1.89 1.89 0 0 1-.19-.85 1.84 1.84 0 0 1 .19-.83 1.3 1.3 0 0 1 .57-.59 1.68 1.68 0 0 1 .38-.14 1.94 1.94 0 0 1 .42 0h1.47v.57h-1.36a.85.85 0 0 0-.31 0 .72.72 0 0 0-.24.17.75.75 0 0 0-.17.24.78.78 0 0 0 0 .29h2.14v.57h-2.14a.8.8 0 0 0 0 .27.77.77 0 0 0 .15.24.84.84 0 0 0 .23.19.59.59 0 0 0 .28.06h1.44v.55zm3.68-2.64h-1.22v2.65h-.75v-2.65h-1.2v-.54h3.17v.54zm5.82-.55l-1.13 3.2h-1l-.72-2.26-.7 2.26h-1l-1.12-3.2h.89l.73 2.39.72-2.39h.93l.77 2.42.7-2.42zm3.86 1.58a1.57 1.57 0 0 1-.53 1.33 2.05 2.05 0 0 1-1.25.32 2 2 0 0 1-1.34-.37 1.65 1.65 0 0 1-.48-1.32 1.55 1.55 0 0 1 .42-1.16 1.9 1.9 0 0 1 1.38-.45 1.92 1.92 0 0 1 1.43.43 1.71 1.71 0 0 1 .36 1.21zm-.83 0a1.14 1.14 0 0 0-.23-.75.93.93 0 0 0-.76-.31.88.88 0 0 0-.75.33 1.17 1.17 0 0 0-.21.72 1.37 1.37 0 0 0 .17.76 1 1 0 0 0 .86.34.82.82 0 0 0 .75-.33 1.43 1.43 0 0 0 .17-.77zm5 1.62h-.92l-.85-1.24h-.88v1.24h-.77v-3.19h2.39a.85.85 0 0 1 .67.31 1.07 1.07 0 0 1 .27.73.78.78 0 0 1-.23.57 1 1 0 0 1-.58.29l.9 1.3zm-1-2.19a.4.4 0 0 0-.17-.34.78.78 0 0 0-.46-.12h-1v.89h1a.8.8 0 0 0 .39-.1.37.37 0 0 0 .21-.33zm4.61-1l-1.45 1.57 1.4 1.62h-1l-1.24-1.62 1.29-1.57zm-2.32 3.19h-.72v-3.19h.72z" transform="translate(-527.91 -446.29)"/><path class="cls-2" d="M545.89 454.4a3.34 3.34 0 0 1 .15.59 1.51 1.51 0 0 0 1-1.69 1 1 0 0 1 .85-1.24c-1.33 1.69.62 2.22-1.8 3.44 0 .7-.48 1.42-2.13 1.35 0 0-.4.6.6.67 0 0 1.2.27.33 1.2 0 0-1.13.8-1.53-.2 0 0-5.14.57-4.85-.27 0 0-1.66-1.86-3.86.4 0 0-3.56 3.32 2.13 8.51.11 0 1.85 2.22 7 2.17 0 0-5.32.42-8.18-1.84-.47.41 11.73 7.8 17.32-6.35.43-.13-1.78 11.12-14.26 9.6 0 0-10.24-2.26-8.38-11.77a7.5 7.5 0 0 1 8.11-5.72c.57-.05-1.92-.57-2.27-2.87 0 0 .79 1.44 1.52 1.57-.42-.36-.95-1.19-.64-1.69-.06 0 .41 1.8 2.85 3h1.13c.28-1.46-3.58-.42-2.87-3.28 0 0 .08 1.42.94 1.62l.2-.8.33 1.06s2.19-.13 2.73 1.66c0 0 .6 2.46 3.12.86l.3-.2c.16-.38.15-1-1.31-1 0 0-.32-.47.87-.95a3.07 3.07 0 0 0 1.34-1s-.08 1-1.58 1.5c-.05.03 1.66.44.84 1.67z" transform="translate(-527.91 -446.29)"/><path class="cls-3" d="M535.4 462.17c-.25.23-.37.64-.2 1.32a8.87 8.87 0 0 0 6.44 5 10.73 10.73 0 0 0 4.5-.49c12.2-5.52 5.48-25.47-8.63-21.1 0 0 11.25-1.5 12.94 7-.06-.31-1.7-3.85-4.35-4.87 0 0 7.77 8 2 14.51-4 4.16-8.6 3.57-11-1.31a1.4 1.4 0 0 0-1.54-.26l-.09.05z" transform="translate(-527.91 -446.29)"/><path class="cls-3" d="M528.07 459.12s1-6.57 4.53-8l-1.24 2.73c-1 2.1 1.78-5.2 9.44-4 .27.09 2.58-1.17.48-2.29-10.28-1.56-14.28 7.6-13.21 11.56z" transform="translate(-527.91 -446.29)"/><circle class="cls-4" cx="14.05" cy="16.07" r="2.44"/></svg>